<svg width="32" height="32" viewBox="0 0 32 32" fill="none" xmlns="http://www.w3.org/2000/svg">
<path d="M28.682 7.158C27.988 6.212 27.02 5.104 25.958 4.042C24.896 2.98 23.788 2.012 22.842 1.318C21.23 0.136 20.448 0 20 0H4.5C3.122 0 2 1.122 2 2.5V29.5C2 30.878 3.122 32 4.5 32H27.5C28.878 32 30 30.878 30 29.5V10C30 9.552 29.864 8.77 28.682 7.158V7.158ZM24.542 5.458C25.502 6.418 26.254 7.282 26.81 8H21.998V3.19C22.716 3.746 23.582 4.498 24.54 5.458H24.542ZM28 29.5C28 29.772 27.772 30 27.5 30H4.5C4.36788 29.9984 4.2416 29.9453 4.14817 29.8518C4.05474 29.7584 4.00156 29.6321 4 29.5V2.5C4 2.23 4.23 2 4.5 2H20V9C20 9.26522 20.1054 9.51957 20.2929 9.70711C20.4804 9.89464 20.7348 10 21 10H28V29.5Z" fill="#34A9C9"/>
<path d="M16 21.0045C16.9264 21.0045 17.6773 20.266 17.6773 19.355C17.6773 18.444 16.9264 17.7054 16 17.7054C15.0737 17.7054 14.3228 18.444 14.3228 19.355C14.3228 20.266 15.0737 21.0045 16 21.0045Z" fill="#34A9C9"/>
<path d="M16 22.7346C20.9706 22.7346 25 21.2216 25 19.3551C25 17.4887 20.9706 15.9756 16 15.9756C11.0294 15.9756 7 17.4887 7 19.3551C7 21.2216 11.0294 22.7346 16 22.7346Z" stroke="#34A9C9"/>
<path d="M13.024 21.0448C15.5093 25.2783 18.8564 27.9536 20.5 27.0204C22.1436 26.0871 21.4612 21.8987 18.976 17.6653C16.4907 13.4319 13.1436 10.7565 11.5 11.6898C9.85639 12.623 10.5387 16.8114 13.024 21.0448Z" stroke="#34A9C9"/>
<path d="M13.024 17.6653C10.5387 21.8987 9.85639 26.0871 11.5 27.0204C13.1436 27.9536 16.4907 25.2783 18.976 21.0448C21.4612 16.8114 22.1436 12.623 20.5 11.6898C18.8564 10.7565 15.5093 13.4319 13.024 17.6653Z" stroke="#34A9C9"/>
</svg>
